<!DOCTYPE svg PUBLIC "-//W3C//DTD SVG 20010904//EN" "http://www.w3.org/TR/2001/REC-SVG-20010904/DTD/svg10.dtd">
<svg version="1.0" xmlns="http://www.w3.org/2000/svg" width="500px" height="500px" viewBox="0 0 5000 5000" preserveAspectRatio="xMidYMid meet">
<g id="layer101" fill="#ff554f" stroke="none">
 <path d="M0 2500 l0 -2500 2500 0 2500 0 0 2500 0 2500 -2500 0 -2500 0 0 -2500z"/>
 </g>
<g id="layer102" fill="#ffffff" stroke="none">
 <path d="M958 4546 l-21 -44 -66 -4 c-81 -6 -114 -25 -135 -79 -13 -33 -16 -88 -16 -337 0 -269 2 -301 19 -338 28 -61 78 -78 213 -72 186 7 188 11 188 413 0 248 -3 301 -16 335 -9 22 -25 45 -35 50 -18 10 -18 12 1 56 11 25 20 50 20 55 0 5 -29 9 -65 9 l-65 0 -22 -44z m37 -461 l0 -270 -55 -3 c-43 -3 -57 1 -67 14 -17 23 -19 485 -2 515 9 17 19 20 67 17 l57 -3 0 -270z"/>
 <path d="M1473 4485 c-18 -8 -42 -29 -53 -47 -19 -32 -20 -47 -18 -398 l3 -365 65 0 65 0 5 340 5 340 55 3 c43 3 57 -1 67 -14 10 -14 13 -95 13 -346 l0 -328 65 0 65 0 0 368 c0 350 -1 368 -20 400 -11 18 -36 40 -55 48 -46 19 -218 18 -262 -1z"/>
 <path d="M2075 4488 c-3 -7 -4 -193 -3 -413 l3 -400 70 0 70 0 0 410 0 410 -68 3 c-48 2 -69 -1 -72 -10z"/>
 <path d="M2457 4493 c-3 -5 50 -150 118 -323 67 -173 125 -325 129 -337 7 -22 6 -22 -106 -25 l-113 -3 0 -65 0 -65 204 -3 c113 -1 208 1 213 6 4 4 -51 158 -122 342 -72 184 -130 336 -130 337 0 2 54 3 120 3 l120 0 0 70 0 70 -214 0 c-118 0 -217 -3 -219 -7z"/>
 <path d="M3160 4085 l0 -415 205 0 205 0 0 70 0 70 -135 0 -135 0 0 100 0 100 105 0 105 0 0 70 0 70 -105 0 -105 0 0 105 0 105 135 0 135 0 0 70 0 70 -205 0 -205 0 0 -415z"/>
 <path d="M3835 4488 c-3 -7 -4 -193 -3 -413 l3 -400 66 -3 c47 -2 68 1 71 10 3 7 38 105 78 218 40 113 77 209 81 215 5 5 9 -93 9 -218 l0 -228 68 3 67 3 0 410 0 410 -62 3 c-51 2 -63 0 -71 -15 -5 -10 -43 -110 -83 -223 l-74 -205 -5 220 -5 220 -68 3 c-48 2 -69 -1 -72 -10z"/>
 <path d="M2380 3175 c-155 -54 -312 -139 -451 -242 -109 -80 -274 -250 -361 -373 -169 -237 -295 -579 -355 -960 -25 -158 -27 -810 -3 -834 8 -8 293 -100 634 -205 l618 -191 227 70 c426 131 1023 319 1026 322 13 12 27 339 22 488 -28 798 -305 1390 -812 1731 -134 91 -408 220 -461 218 -11 0 -48 -11 -84 -24z m547 -230 c1 -11 -21 -72 -51 -135 l-53 -115 26 -16 c38 -23 91 -87 115 -138 21 -45 21 -57 24 -821 3 -808 2 -841 -39 -922 -28 -55 -96 -115 -159 -140 -51 -21 -74 -23 -304 -26 -237 -3 -253 -2 -320 19 -59 19 -81 33 -127 78 -99 100 -94 49 -94 966 l0 790 29 63 c64 139 178 192 416 192 l95 0 40 92 c65 148 49 139 238 136 154 -3 162 -4 164 -23z"/>
 <path d="M2344 2378 c-12 -5 -27 -21 -33 -34 -8 -18 -11 -217 -11 -670 l0 -645 25 -24 c23 -24 30 -25 142 -25 135 0 156 8 173 68 13 47 13 1210 0 1267 -15 64 -38 75 -165 74 -60 0 -120 -5 -131 -11z"/>
 </g>

</svg>